<?xml version="1.0" encoding="UTF-8" standalone="no"?>
<!-- Generator: Adobe Illustrator 17.0.2, SVG Export Plug-In . SVG Version: 6.00 Build 0)  -->

<svg
   xmlns:dc="http://purl.org/dc/elements/1.1/"
   xmlns:cc="http://creativecommons.org/ns#"
   xmlns:rdf="http://www.w3.org/1999/02/22-rdf-syntax-ns#"
   xmlns:svg="http://www.w3.org/2000/svg"
   xmlns="http://www.w3.org/2000/svg"
   xmlns:sodipodi="http://sodipodi.sourceforge.net/DTD/sodipodi-0.dtd"
   xmlns:inkscape="http://www.inkscape.org/namespaces/inkscape"
   version="1.1"
   id="Layer_1"
   x="0px"
   y="0px"
   width="105.945px"
   height="140.869px"
   viewBox="0 0 105.945 157.869"
   enable-background="new 0 0 105.945 140.869"
   xml:space="preserve"
   inkscape:version="0.48.4 r9939"
   sodipodi:docname="base.svg"><metadata
   id="metadata3296"><rdf:RDF><cc:Work
       rdf:about=""><dc:format>image/svg+xml</dc:format><dc:type
         rdf:resource="http://purl.org/dc/dcmitype/StillImage" /></cc:Work></rdf:RDF></metadata><defs
   id="defs3294" /><sodipodi:namedview
   pagecolor="#ffffff"
   bordercolor="#666666"
   borderopacity="1"
   objecttolerance="10"
   gridtolerance="10"
   guidetolerance="10"
   inkscape:pageopacity="0"
   inkscape:pageshadow="2"
   inkscape:window-width="1920"
   inkscape:window-height="1137"
   id="namedview3292"
   showgrid="true"
   inkscape:zoom="7.9999995"
   inkscape:cx="64.822216"
   inkscape:cy="81.65552"
   inkscape:window-x="-8"
   inkscape:window-y="-8"
   inkscape:window-maximized="1"
   inkscape:current-layer="Layer_1"><inkscape:grid
     type="xygrid"
     id="grid3106"
     empspacing="5"
     visible="true"
     enabled="true"
     snapvisiblegridlinesonly="true" /></sodipodi:namedview>


<g
   id="g3262"
   transform="matrix(0.80913361,0,0,0.80913361,9.4452202,6.281643)">
</g>
<g
   id="g3264"
   transform="matrix(0.80913361,0,0,0.80913361,9.4452202,6.281643)">
</g>
<g
   id="g3266"
   transform="matrix(0.80913361,0,0,0.80913361,9.4452202,6.281643)">
</g>
<g
   id="g3268"
   transform="matrix(0.80913361,0,0,0.80913361,9.4452202,6.281643)">
</g>
<g
   id="g3270"
   transform="matrix(0.80913361,0,0,0.80913361,9.4452202,6.281643)">
</g>
<g
   id="g3272"
   transform="matrix(0.80913361,0,0,0.80913361,9.4452202,6.281643)">
</g>
<g
   id="g3274"
   transform="matrix(0.80913361,0,0,0.80913361,9.4452202,6.281643)">
</g>
<g
   id="g3276"
   transform="matrix(0.80913361,0,0,0.80913361,9.4452202,6.281643)">
</g>
<g
   id="g3278"
   transform="matrix(0.80913361,0,0,0.80913361,9.4452202,6.281643)">
</g>
<g
   id="g3280"
   transform="matrix(0.80913361,0,0,0.80913361,9.4452202,6.281643)">
</g>
<g
   id="g3282"
   transform="matrix(0.80913361,0,0,0.80913361,9.4452202,6.281643)">
</g>
<g
   id="g3284"
   transform="matrix(0.80913361,0,0,0.80913361,9.4452202,6.281643)">
</g>
<g
   id="g3286"
   transform="matrix(0.80913361,0,0,0.80913361,9.4452202,6.281643)">
</g>
<g
   id="g3288"
   transform="matrix(0.80913361,0,0,0.80913361,9.4452202,6.281643)">
</g>
<g
   id="g3290"
   transform="matrix(0.80913361,0,0,0.80913361,9.4452202,6.281643)">
</g>
<text
   xml:space="preserve"
   style="font-size:32.365345px;font-style:normal;font-weight:normal;line-height:125%;letter-spacing:0px;word-spacing:0px;fill:#000000;fill-opacity:1;stroke:none;font-family:Sans"
   x="22.318457"
   y="113.42158"
   id="text3108"
   sodipodi:linespacing="125%"><tspan
     sodipodi:role="line"
     id="tspan3110"
     x="22.318457"
     y="113.42158" /></text>




<path
   sodipodi:type="arc"
   style="fill:#ff0000;fill-rule:evenodd;stroke:#000000;stroke-width:1px;stroke-linecap:butt;stroke-linejoin:miter;stroke-opacity:1"
   id="path3031"
   sodipodi:cx="38.5"
   sodipodi:cy="23.369003"
   sodipodi:rx="2.5"
   sodipodi:ry="2.5"
   d="m 41,23.369003 a 2.5,2.5 0 1 1 -5,0 2.5,2.5 0 1 1 5,0 z"
   transform="matrix(0.80913361,0,0,0.80913361,8.219765,11.295172)" /><path
   sodipodi:type="arc"
   style="fill:#ff0000;fill-rule:evenodd;stroke:#000000;stroke-width:1px;stroke-linecap:butt;stroke-linejoin:miter;stroke-opacity:1"
   id="path3031-1"
   sodipodi:cx="38.5"
   sodipodi:cy="23.369003"
   sodipodi:rx="2.5"
   sodipodi:ry="2.5"
   d="m 41,23.369003 a 2.5,2.5 0 1 1 -5,0 2.5,2.5 0 1 1 5,0 z"
   transform="matrix(0.80913361,0,0,0.80913361,34.147162,11.36765)" /><path
   style="fill:none;stroke:#000000;stroke-width:0.21484666px;stroke-linecap:butt;stroke-linejoin:miter;stroke-opacity:1"
   d="m 82.8092,44.142063 c -20.265985,-0.0097 -40.53197,-0.01942 -60.797955,-0.02913 -0.09777,-4.483973 1.470157,-8.78562 3.519873,-12.70536 2.710556,-4.84651 7.164329,-8.405213 11.935818,-11.084774 -1.59301,-2.911362 -3.186021,-5.822725 -4.779032,-8.734087 -0.206647,-1.263952 1.471814,-1.44483 1.819915,-0.53881 1.455127,2.430613 3.411182,5.863085 4.866308,8.293697 5.247988,-2.508875 11.270158,-3.023683 17.001999,-2.5406 3.238076,0.398135 6.357664,1.432566 9.352986,2.695828 1.675405,-2.95256 3.294138,-5.849513 4.969544,-8.802073 0.888557,-0.7237093 1.575873,0.351199 1.404929,0.733975 -1.317498,2.436809 -3.24424,6.290463 -4.561739,8.727272 7.18847,3.876981 12.843266,10.756741 14.850707,18.708282 0.285595,1.742926 0.345143,3.513957 0.416647,5.275779 z"
   id="path3204"
   inkscape:connector-curvature="0"
   sodipodi:nodetypes="cccccccccccccc" /><path
   style="fill:none;stroke:#000000;stroke-width:0.19677791px;stroke-linecap:butt;stroke-linejoin:miter;stroke-opacity:1"
   d="m 5.681159,53.891926 c 0.2012238,-3.169974 3.4581014,-5.483498 6.5184,-5.145335 3.129491,-0.01287 5.953784,2.886879 5.703422,6.040747 -0.06323,9.020039 0.02696,18.042294 -0.01405,27.063191 -0.334816,3.218874 -3.681347,5.449962 -6.791406,5.097375 -2.6276462,-0.141061 -5.0865572,-2.192147 -5.3646508,-4.867897 -0.2093422,-1.972386 0.00875,-3.960882 -0.072814,-5.940455 0.00702,-7.415872 0.014054,-14.831766 0.021088,-22.247626 z"
   id="path3233"
   inkscape:connector-curvature="0" /><path
   style="fill:none;stroke:#000000;stroke-width:0.19677791px;stroke-linecap:butt;stroke-linejoin:miter;stroke-opacity:1"
   d="m 86.681982,54.017316 c 0.201224,-3.169973 3.458098,-5.483498 6.518406,-5.145335 3.129486,-0.01286 5.953783,2.88688 5.703421,6.040747 -0.06327,9.02004 0.02694,18.042295 -0.01408,27.063192 -0.334812,3.218877 -3.681348,5.449954 -6.791406,5.097377 -2.62765,-0.141064 -5.086561,-2.192152 -5.364655,-4.8679 -0.209342,-1.972385 0.0088,-3.960881 -0.07281,-5.940454 0.007,-7.415873 0.01405,-14.831766 0.02109,-22.247627 z"
   id="path3233-1"
   inkscape:connector-curvature="0" /><g
   id="g3070"
   transform="matrix(0.90677945,0,0,0.90677945,-16.236762,-79.074411)" /><path
   style="fill:none;stroke:#000000;stroke-width:0.22089379px;stroke-linecap:butt;stroke-linejoin:miter;stroke-opacity:1"
   d="m 21.37143,92.519241 61.842825,0 0.01545,1.281659 c 0.02226,0.637816 -0.260682,1.088309 -0.531175,1.653554 -0.324814,0.631852 -0.734808,1.224356 -1.273892,1.777124 -0.467621,0.395545 -0.934811,0.769624 -1.420444,1.101644 -1.107991,0.800799 -1.906838,1.037997 -3.217843,1.032155 l -5.940649,-0.02646 0,16.040973 c 0.06132,0.84491 -0.190663,1.73673 -0.467853,2.43403 -0.791578,1.96668 -2.278783,3.16184 -4.326308,3.73556 -1.468518,0.41078 -2.955312,0.47096 -4.323536,-0.008 -1.626634,-0.58193 -2.798919,-1.80492 -3.707958,-3.42081 -0.524682,-0.91283 -0.834834,-1.5395 -0.834834,-2.55334 l 0,-16.228185 -9.742362,0 0,16.392585 c 0.0042,0.67475 -0.179621,1.38691 -0.404067,1.95201 -0.906726,2.26105 -2.539,3.26249 -4.421897,3.82881 -1.23253,0.41576 -2.258299,0.30955 -3.285778,0.10642 -2.081082,-0.50592 -4.015685,-1.36963 -5.145261,-4.19971 -0.275344,-0.68097 -0.424661,-1.16038 -0.424661,-1.86755 l 0,-16.212565 -6.08898,0 c -1.002699,-0.02824 -1.89848,-0.166205 -2.624735,-0.556959 -0.701459,-0.383748 -1.291151,-0.918788 -1.823785,-1.525662 -0.959381,-1.09687 -1.802093,-2.522337 -1.867215,-3.559152 z"
   id="path3368"
   inkscape:connector-curvature="0"
   sodipodi:nodetypes="cccccccccccccccccccccccccccc" /><g
   id="g3091"
   transform="matrix(0.90677945,0,0,0.90677945,-68.806397,-7.6165622)"><path
     id="path3093"
     d="m 130.9315,110.37325 0,-2.16776 -23.11985,0 0,-3.83197 23.09426,0 0,-1.94586 -20.50831,0 0,-3.874641 20.30347,0 0,-2.176291 -17.58098,0 0,-3.806365 17.64926,0 0,-1.920252 -15.01212,0 0,-3.857578 15.19134,0 0,-1.962927 -12.56272,0 0,-3.831972 12.56272,0 0,-2.167754 -9.8829,0 0,-3.831974 9.8829,0 0,-1.945857 -7.27136,0 0,-3.900249 7.25429,0 0,-5.009729 -31.551902,0 0,-3.388181 67.422252,0 0,3.413784 -31.80794,0 0,5.078005 7.49326,0 0,3.789301 -7.24576,0 0,1.962926 9.89145,0 0,3.883181 -10.08775,0 0,2.12508 12.76756,0 0,3.849042 -12.83583,0 0,1.962927 15.51564,0 0,3.823438 -15.25107,0 -0.23897,0 0,1.920254 18.05038,0 0,3.891708 -18.08451,0 0,2.236038 20.76434,0 0,3.763686 -20.76434,0 0,1.7325 0,0.23043 23.44416,0 0,3.85758 -23.40149,0 0,2.12509 z"
     style="fill:none;stroke:#000000;stroke-width:0.23896492px;stroke-linecap:butt;stroke-linejoin:miter;stroke-miterlimit:4;stroke-opacity:1;stroke-dasharray:none"
     inkscape:connector-curvature="0" /></g></svg>